<svg width="161" height="33" viewBox="0 0 161 33" fill="none" xmlns="http://www.w3.org/2000/svg">
    <g clip-path="url(#clip0_1102_318)">
        <path
            d="M21.7441 31.0967C21.6696 30.939 21.5963 30.7813 21.5218 30.6236C21.271 30.0888 21.0202 29.554 20.7694 29.0192C20.4685 28.3773 20.1676 27.736 19.8668 27.0941C19.6072 26.5413 19.3483 25.9884 19.0893 25.435C18.9973 25.2389 18.9042 25.0428 18.8129 24.8461C18.6924 24.5871 18.601 24.2979 18.4474 24.0541C18.2292 23.7072 17.8469 23.503 17.4296 23.4122C17.4261 23.4116 15.0989 22.9047 13.0482 22.4584C12.8521 21.1304 12.6868 20.0114 12.6868 20.0114L13.022 15.5258C13.1483 15.6881 13.2746 15.8499 13.4008 16.0123C13.5876 16.252 13.7541 16.5424 13.9997 16.7374C14.3238 16.9946 14.8365 17.1389 15.2596 17.1278L21.4822 16.9626C23.4725 16.9178 23.2403 15.6328 23.2403 15.6328C23.2612 14.8018 22.2009 14.5923 22.2009 14.5923L16.0894 13.777C16.0114 13.7666 15.7827 13.3452 15.7455 13.2923C15.2246 12.5509 14.7055 11.8078 14.1737 11.0728C13.5516 10.2127 13.0098 9.33859 11.9891 8.79099C11.2186 8.37781 10.2735 8.23524 9.41631 8.38247C9.04154 8.44706 8.69761 8.56345 8.36765 8.72232L1.8802 11.8433C0.959573 12.2221 0.764042 12.4566 0.595279 13.2329C0.455614 14.4946 0.0057754 18.5676 0.0057754 18.5676C-0.00935501 18.7072 -4.39923e-05 18.8475 0.0814274 18.9743C0.125073 19.0424 0.186176 19.1076 0.253681 19.1582C0.519627 19.359 0.897887 19.409 1.22086 19.4742C1.41756 19.5138 1.61251 19.5487 1.81444 19.5539C2.518 19.5726 2.66058 18.9906 2.69259 18.876C2.69375 18.8725 3.90476 14.5947 3.90476 14.5947C3.92164 14.5359 3.9391 14.4765 3.96354 14.4201C4.0066 14.32 4.07411 14.2315 4.17595 14.1739C4.28826 14.1105 4.41804 14.0971 4.54664 14.0744C4.69155 14.0488 4.83587 14.0197 4.98019 13.9924C5.21064 13.9487 5.4405 13.9051 5.67095 13.8614C5.91187 13.8154 6.15279 13.7701 6.3943 13.7247C6.58343 13.6892 6.77198 13.6531 6.96111 13.6176C7.03734 13.603 7.11299 13.5885 7.18923 13.5745L6.9902 19.6069C7.02687 20.552 7.12929 20.7586 7.12929 20.7586L9.53211 26.7083L5.34274 30.4397C3.8844 31.4918 5.0989 32.5219 5.0989 32.5219C5.25079 32.6708 5.44516 32.8117 5.64942 32.8955C5.77453 32.9467 5.91653 32.9816 6.05154 32.9938C6.48217 33.034 6.83308 32.8769 7.14267 32.6365C7.28176 32.5283 7.422 32.4212 7.56167 32.313C8.03537 31.9475 8.50848 31.5826 8.98218 31.2177C9.55015 30.7795 10.1181 30.3413 10.6867 29.9031C11.1761 29.5255 11.6655 29.1478 12.1555 28.7707C12.3295 28.6368 12.5023 28.5018 12.6763 28.3686C12.9056 28.1928 13.178 28.0328 13.3793 27.8332C13.647 27.5684 13.7302 27.2169 13.6941 26.8625L16.1616 26.9085L18.9095 31.823C19.6055 33.4437 21.0394 32.7884 21.0394 32.7884C21.2396 32.7139 21.4444 32.6004 21.591 32.4579C21.6807 32.3706 21.7581 32.2629 21.8099 32.1529C21.9757 31.802 21.9094 31.4464 21.7441 31.0967Z"
            fill="black" />
        <path
            d="M17.1736 4.6807C16.4253 6.35727 13.9346 8.28407 12.258 7.53511C10.5814 6.78616 10.3545 3.64602 11.1029 1.96945C11.8512 0.292885 13.8176 -0.45898 15.4936 0.289976C17.1696 1.03893 17.922 3.00472 17.1736 4.6807Z"
            fill="black" />
        <path
            d="M24.7156 14.9437C24.4322 14.7022 24.1314 14.4456 23.802 14.1645C24.0819 13.8724 25.4902 12.4518 25.7666 12.1632C26.3491 11.5551 26.5773 10.8195 26.3672 10.0176C25.7509 7.66132 26.5744 5.76187 28.2195 4.1499C29.4305 2.96333 30.8964 2.32669 32.6353 2.37964C34.4457 2.43493 35.961 3.87639 36.181 5.6804C36.561 8.79494 33.8841 11.881 31.0588 12.3715C30.3622 12.4926 29.6167 12.4303 28.9062 12.3459C28.067 12.2458 27.3384 12.3733 26.7216 12.9738C26.4341 13.2532 25.0113 14.6603 24.7156 14.9437ZM34.9677 6.28853C35.0253 4.44727 33.5675 3.38873 31.9998 3.6215C29.8565 3.93982 28.4226 5.21427 27.6381 7.22254C27.2279 8.27352 27.3268 9.31344 27.8197 10.3039C27.9466 10.5588 28.2119 10.8096 28.4738 10.9196C29.2082 11.228 29.9752 11.3496 30.7876 11.1972C32.9838 10.7846 34.9671 8.47604 34.9677 6.28853Z"
            fill="black" />
        <path
            d="M46.6222 5.69635H52.0414C54.2091 5.69635 55.7574 9.59818 55.6335 12.7258C55.5716 14.3361 54.7974 14.8935 53.8065 16.0702C55.0142 17.5567 55.7574 18.4547 55.8193 20.3127C55.9122 23.3475 54.24 27.3732 52.351 27.3732H46.7151C44.7642 27.3732 44.7642 27.3732 44.7642 25.67V7.39953C44.7642 5.72732 44.7642 5.72732 46.6222 5.69635ZM48.2944 9.19561V14.7696H50.1524C51.7007 14.7696 53.2491 11.8278 51.3911 9.19561H48.2944ZM48.2944 18.2379V23.8429H51.3911C53.2491 21.1798 51.7007 18.2379 50.1524 18.2379H48.2944ZM68.0512 6.34666L71.2718 26.0106C71.5195 27.559 68.0203 27.7138 67.8345 26.599L67.2151 22.883H63.592L62.9727 26.599C62.8178 27.528 59.2876 27.559 59.5353 26.0106L62.7869 6.34666C62.9417 5.41765 67.9274 5.51055 68.0512 6.34666ZM66.6268 19.3837L65.4191 11.9826L64.1804 19.3837H66.6268ZM76.8458 5.69635H81.0263C86.1978 5.69635 86.3526 27.3732 81.336 27.3732H76.9387C74.9878 27.3732 74.9878 27.3732 74.9878 25.67V7.39953C74.9878 5.72732 74.9878 5.72732 76.8458 5.69635ZM79.7567 9.19561H79.7257C78.4871 9.19561 78.4871 9.19561 78.4871 10.3723V22.6972C78.4871 23.8429 78.4871 23.8429 79.7877 23.8429H79.9735C81.9863 23.8429 81.8934 9.19561 79.7567 9.19561ZM91.1835 5.69635H96.6027C98.7704 5.69635 100.319 9.59818 100.195 12.7258C100.133 14.3361 99.3587 14.8935 98.3678 16.0702C99.5755 17.5567 100.319 18.4547 100.381 20.3127C100.474 23.3475 98.8013 27.3732 96.9123 27.3732H91.2764C89.3255 27.3732 89.3255 27.3732 89.3255 25.67V7.39953C89.3255 5.72732 89.3255 5.72732 91.1835 5.69635ZM92.8557 9.19561V14.7696H94.7137C96.262 14.7696 97.8104 11.8278 95.9524 9.19561H92.8557ZM92.8557 18.2379V23.8429H95.9524C97.8104 21.1798 96.262 18.2379 94.7137 18.2379H92.8557ZM116.793 6.37762V19.6934C116.793 29.9124 104.716 29.9744 104.716 19.6624V6.34666C104.716 5.41765 108.246 5.41765 108.246 6.34666V19.6624C108.246 25.3293 113.263 25.3603 113.263 19.6934V6.37762C113.263 5.44862 116.793 5.44862 116.793 6.37762ZM122.986 5.69635H127.167C132.338 5.69635 132.493 27.3732 127.477 27.3732H123.079C121.128 27.3732 121.128 27.3732 121.128 25.67V7.39953C121.128 5.72732 121.128 5.72732 122.986 5.69635ZM125.897 9.19561H125.866C124.628 9.19561 124.628 9.19561 124.628 10.3723V22.6972C124.628 23.8429 124.628 23.8429 125.928 23.8429H126.114C128.127 23.8429 128.034 9.19561 125.897 9.19561ZM137.324 5.69635H141.505C146.676 5.69635 146.831 27.3732 141.814 27.3732H137.417C135.466 27.3732 135.466 27.3732 135.466 25.67V7.39953C135.466 5.72732 135.466 5.72732 137.324 5.69635ZM140.235 9.19561H140.204C138.965 9.19561 138.965 9.19561 138.965 10.3723V22.6972C138.965 23.8429 138.965 23.8429 140.266 23.8429H140.452C142.465 23.8429 142.372 9.19561 140.235 9.19561ZM157.329 6.25376C157.669 5.32475 161.23 5.60345 160.58 7.15179C159.156 10.5581 156.616 16.7825 156.709 16.6277V26.6919C156.709 27.6209 153.179 27.6209 153.179 26.6919V16.6277L149.277 7.27566C148.565 5.57249 152.095 5.23185 152.56 6.37762L154.944 12.4781C155.595 10.7439 156.647 8.11177 157.329 6.25376Z"
            fill="black" />
    </g>
    <defs>
        <clipPath id="clip0_1102_318">
            <rect width="160.66" height="33" fill="white" />
        </clipPath>
    </defs>
</svg>
    